<svg width="28" height="28" viewBox="0 0 28 28" fill="none" xmlns="http://www.w3.org/2000/svg">
<rect width="28" height="28" rx="4" fill="#001D13"/>
<path d="M23.6 21V21.9333H18V21H23.6Z" fill="#76FF9C"/>
<path d="M14.2813 11.5597C14.2339 11.0388 14.0232 10.634 13.6491 10.3452C13.2798 10.0516 12.7519 9.90483 12.0653 9.90483C11.6108 9.90483 11.232 9.96402 10.929 10.0824C10.6259 10.2008 10.3987 10.3641 10.2472 10.5724C10.0956 10.776 10.0175 11.0104 10.0128 11.2756C10.0033 11.4934 10.0459 11.6851 10.1406 11.8509C10.2401 12.0166 10.3821 12.1634 10.5668 12.2912C10.7562 12.4143 10.9834 12.5232 11.2486 12.6179C11.5137 12.7126 11.812 12.7955 12.1435 12.8665L13.3935 13.1506C14.1132 13.3068 14.7476 13.5152 15.2969 13.7756C15.8509 14.036 16.3149 14.3461 16.6889 14.706C17.0677 15.0658 17.3542 15.4801 17.5483 15.9489C17.7424 16.4176 17.8419 16.9432 17.8466 17.5256C17.8419 18.4441 17.6098 19.2325 17.1506 19.8906C16.6913 20.5488 16.0308 21.053 15.169 21.4034C14.312 21.7538 13.2775 21.929 12.0653 21.929C10.8485 21.929 9.78788 21.7467 8.88352 21.3821C7.97917 21.0175 7.27604 20.4635 6.77415 19.7202C6.27225 18.9768 6.0142 18.0369 6 16.9006H9.36648C9.39489 17.3693 9.52036 17.7599 9.7429 18.0724C9.96544 18.3849 10.2708 18.6217 10.6591 18.7827C11.0521 18.9437 11.5066 19.0241 12.0227 19.0241C12.4962 19.0241 12.8987 18.9602 13.2301 18.8324C13.5663 18.7045 13.8243 18.527 14.0043 18.2997C14.1842 18.0724 14.2765 17.812 14.2813 17.5185C14.2765 17.2438 14.1913 17.0095 14.0256 16.8153C13.8598 16.6165 13.6042 16.446 13.2585 16.304C12.9176 16.1572 12.482 16.0223 11.9517 15.8991L10.4318 15.544C9.17235 15.2552 8.1804 14.7888 7.45597 14.1449C6.73153 13.4962 6.37169 12.6203 6.37642 11.517C6.37169 10.6174 6.61316 9.82907 7.10085 9.15199C7.58854 8.47491 8.26326 7.94697 9.125 7.56818C9.98674 7.18939 10.9692 7 12.0724 7C13.1993 7 14.1771 7.19176 15.0057 7.57528C15.839 7.95407 16.4853 8.48674 16.9446 9.1733C17.4039 9.85985 17.6383 10.6553 17.6477 11.5597H14.2813Z" fill="#76FF9C"/>
</svg>
