<svg width="28" height="28" viewBox="0 0 28 28" fill="none" xmlns="http://www.w3.org/2000/svg">
<rect width="28" height="28" rx="4" fill="#001D13"/>
<path d="M22.4 19.6001V20.5334H16.8V19.6001H22.4Z" fill="#01CB90"/>
<path d="M13.1039 11.623C13.0736 11.2082 12.9315 10.8846 12.6776 10.6523C12.4275 10.42 12.0467 10.3039 11.5352 10.3039C11.2093 10.3039 10.9422 10.3474 10.7337 10.4346C10.5291 10.5175 10.3776 10.6316 10.279 10.7768C10.1805 10.922 10.1294 11.0879 10.1256 11.2746C10.118 11.428 10.1426 11.567 10.1995 11.6914C10.2601 11.8117 10.3548 11.9217 10.4837 12.0212C10.6125 12.1166 10.7773 12.2037 10.9781 12.2826C11.179 12.3614 11.4177 12.4319 11.6943 12.4941L12.6492 12.7181C13.2933 12.8674 13.8447 13.0645 14.3031 13.3092C14.7616 13.554 15.1368 13.8423 15.4285 14.1741C15.7203 14.5018 15.9344 14.871 16.0708 15.2817C16.211 15.6923 16.283 16.1403 16.2868 16.6257C16.283 17.4636 16.0916 18.1729 15.7127 18.7537C15.3338 19.3344 14.792 19.7762 14.0872 20.079C13.3862 20.3818 12.5431 20.5332 11.5579 20.5332C10.5462 20.5332 9.6633 20.3694 8.90926 20.0417C8.159 19.714 7.57547 19.21 7.15866 18.5297C6.74564 17.8452 6.53724 16.97 6.53345 15.9039H9.53447C9.55342 16.2938 9.64246 16.6215 9.80161 16.887C9.96076 17.1525 10.1843 17.3537 10.4723 17.4906C10.7641 17.6274 11.1108 17.6959 11.5124 17.6959C11.8497 17.6959 12.132 17.6503 12.3593 17.559C12.5867 17.4677 12.7591 17.3412 12.8765 17.1794C12.994 17.0177 13.0546 16.8331 13.0584 16.6257C13.0546 16.4307 12.9959 16.2606 12.8822 16.1154C12.7723 15.9661 12.5904 15.8334 12.3366 15.7172C12.0827 15.5969 11.7398 15.4849 11.3078 15.3812L10.1483 15.1074C9.11766 14.8627 8.30489 14.4541 7.70999 13.8817C7.11887 13.3051 6.82521 12.519 6.829 11.5234C6.82521 10.7146 7.02225 10.0073 7.42011 9.40166C7.82177 8.79189 8.37688 8.31692 9.08546 7.97677C9.79782 7.63663 10.6144 7.46655 11.5352 7.46655C12.4749 7.46655 13.2876 7.6387 13.9735 7.983C14.6593 8.32729 15.1879 8.81263 15.5593 9.439C15.9344 10.0612 16.1238 10.7892 16.1276 11.623H13.1039Z" fill="#01CB90"/>
</svg>
