<svg width="142" height="28" viewBox="0 0 142 28" fill="none" xmlns="http://www.w3.org/2000/svg">
<path d="M44.313 11.5995C44.2655 11.0742 44.054 10.6658 43.6785 10.3744C43.3078 10.0783 42.7778 9.93024 42.0886 9.93024C41.6323 9.93024 41.2521 9.98994 40.9479 10.1094C40.6437 10.2288 40.4155 10.3935 40.2635 10.6037C40.1114 10.8091 40.0329 11.0455 40.0282 11.313C40.0187 11.5327 40.0614 11.7261 40.1565 11.8933C40.2563 12.0605 40.3989 12.2085 40.5843 12.3375C40.7744 12.4617 41.0025 12.5715 41.2687 12.667C41.5349 12.7626 41.8343 12.8462 42.167 12.9178L43.4218 13.2044C44.1443 13.362 44.7812 13.5721 45.3325 13.8348C45.8886 14.0975 46.3544 14.4104 46.7299 14.7734C47.1102 15.1364 47.3977 15.5543 47.5926 16.0271C47.7875 16.5 47.8873 17.0302 47.892 17.6176C47.8873 18.5442 47.6544 19.3395 47.1933 20.0034C46.7323 20.6673 46.0693 21.176 45.2042 21.5294C44.3439 21.8829 43.3054 22.0596 42.0886 22.0596C40.8671 22.0596 39.8024 21.8757 38.8946 21.5079C37.9868 21.1401 37.2809 20.5813 36.7771 19.8314C36.2733 19.0816 36.0143 18.1335 36 16.9872H39.3794C39.4079 17.46 39.5339 17.8541 39.7573 18.1693C39.9806 18.4845 40.2872 18.7234 40.677 18.8857C41.0715 19.0481 41.5278 19.1293 42.0458 19.1293C42.5211 19.1293 42.9251 19.0649 43.2578 18.9359C43.5953 18.8069 43.8544 18.6278 44.035 18.3986C44.2156 18.1693 44.3083 17.9066 44.313 17.6105C44.3083 17.3335 44.2227 17.097 44.0564 16.9012C43.89 16.7006 43.6333 16.5287 43.2864 16.3854C42.9442 16.2373 42.5069 16.1012 41.9745 15.977L40.4488 15.6188C39.1845 15.3274 38.1888 14.857 37.4616 14.2074C36.7343 13.553 36.3731 12.6694 36.3779 11.5566C36.3731 10.6491 36.6155 9.85382 37.1051 9.17081C37.5946 8.48781 38.2719 7.95525 39.137 7.57315C40.002 7.19105 40.9883 7 42.0957 7C43.227 7 44.2085 7.19344 45.0402 7.58032C45.8768 7.96242 46.5255 8.49975 46.9866 9.19231C47.4476 9.88487 47.6829 10.6873 47.6924 11.5995H44.313Z" fill="white"/>
<path d="M56.7398 17.1233V10.8688H60.219V21.8733H56.8966V19.8243H56.7825C56.5401 20.4977 56.1266 21.0327 55.542 21.4291C54.9621 21.8208 54.2611 22.0166 53.4388 22.0166C52.6926 22.0166 52.0367 21.8446 51.4711 21.5008C50.9054 21.1569 50.4658 20.6768 50.1521 20.0607C49.8384 19.4398 49.6792 18.7138 49.6744 17.8827V10.8688H53.1607V17.1949C53.1655 17.792 53.3224 18.2624 53.6313 18.6063C53.9402 18.9502 54.3609 19.1222 54.8932 19.1222C55.2402 19.1222 55.5515 19.0458 55.8272 18.8929C56.1076 18.7353 56.3286 18.5084 56.4902 18.2123C56.6566 17.9114 56.7398 17.5484 56.7398 17.1233Z" fill="white"/>
<path d="M62.438 26V10.8688H65.8887V12.753H65.9957C66.1383 12.4187 66.3403 12.0963 66.6017 11.7858C66.8678 11.4754 67.2053 11.2222 67.6141 11.0264C68.0276 10.8258 68.5219 10.7255 69.097 10.7255C69.8575 10.7255 70.5681 10.9261 71.2287 11.3273C71.8942 11.7285 72.4312 12.347 72.84 13.1829C73.2488 14.0187 73.4531 15.0838 73.4531 16.3782C73.4531 17.6248 73.2559 18.6684 72.8614 19.509C72.4716 20.3497 71.9441 20.9801 71.2786 21.4005C70.618 21.8208 69.8836 22.0309 69.0756 22.0309C68.5243 22.0309 68.0466 21.9402 67.6426 21.7587C67.2386 21.5772 66.8987 21.3384 66.6231 21.0422C66.3521 20.7461 66.143 20.4285 65.9957 20.0894H65.9244V26H62.438ZM65.8531 16.371C65.8531 16.9633 65.9315 17.4791 66.0884 17.9186C66.25 18.358 66.4805 18.6995 66.7799 18.9431C67.0841 19.1819 67.4477 19.3013 67.8707 19.3013C68.2985 19.3013 68.6621 19.1819 68.9615 18.9431C69.261 18.6995 69.4868 18.358 69.6388 17.9186C69.7957 17.4791 69.8741 16.9633 69.8741 16.371C69.8741 15.7788 69.7957 15.2653 69.6388 14.8307C69.4868 14.3961 69.261 14.0593 68.9615 13.8205C68.6669 13.5817 68.3033 13.4623 67.8707 13.4623C67.443 13.4623 67.0794 13.5793 66.7799 13.8133C66.4805 14.0474 66.25 14.3817 66.0884 14.8164C65.9315 15.251 65.8531 15.7692 65.8531 16.371Z" fill="white"/>
<path d="M80.3991 22.0811C79.2536 22.0811 78.265 21.8542 77.4332 21.4005C76.6062 20.9419 75.9693 20.29 75.5225 19.4446C75.0805 18.5944 74.8594 17.5842 74.8594 16.414C74.8594 15.2773 75.0828 14.2838 75.5296 13.4336C75.9764 12.5787 76.6062 11.9148 77.4189 11.4419C78.2317 10.9643 79.1894 10.7255 80.2921 10.7255C81.0716 10.7255 81.7846 10.8473 82.431 11.0909C83.0774 11.3345 83.6359 11.6951 84.1064 12.1727C84.577 12.6503 84.943 13.2402 85.2044 13.9423C85.4658 14.6396 85.5965 15.4397 85.5965 16.3424V17.2164H76.0786V15.1817H82.3526C82.3478 14.8092 82.2599 14.4772 82.0888 14.1859C81.9177 13.8945 81.6824 13.6677 81.3829 13.5053C81.0883 13.3381 80.7484 13.2545 80.3634 13.2545C79.9737 13.2545 79.6243 13.3429 79.3154 13.5196C79.0064 13.6916 78.7617 13.928 78.581 14.2289C78.4004 14.525 78.3054 14.8617 78.2959 15.2391V17.3096C78.2959 17.7585 78.3838 18.1526 78.5597 18.4917C78.7355 18.826 78.9851 19.0863 79.3083 19.2726C79.6315 19.4589 80.0165 19.552 80.4632 19.552C80.7722 19.552 81.0526 19.509 81.3045 19.4231C81.5564 19.3371 81.7727 19.2105 81.9533 19.0434C82.1339 18.8762 82.2694 18.6708 82.3597 18.4272L85.5608 18.5204C85.4278 19.2416 85.1355 19.8697 84.6839 20.4046C84.2371 20.9348 83.6501 21.3479 82.9229 21.644C82.1957 21.9354 81.3544 22.0811 80.3991 22.0811Z" fill="white"/>
<path d="M87.3771 21.8733V10.8688H90.7636V12.8748H90.8777C91.0773 12.1488 91.4029 11.6091 91.8544 11.2557C92.306 10.8974 92.8312 10.7183 93.4301 10.7183C93.5917 10.7183 93.758 10.7303 93.9291 10.7541C94.1002 10.7733 94.2595 10.8043 94.4068 10.8473V13.8922C94.2404 13.8348 94.0218 13.7895 93.7509 13.756C93.4847 13.7226 93.2471 13.7059 93.0379 13.7059C92.6244 13.7059 92.2513 13.799 91.9186 13.9853C91.5906 14.1668 91.3316 14.4223 91.1415 14.7519C90.9561 15.0767 90.8634 15.4588 90.8634 15.8982V21.8733H87.3771Z" fill="white"/>
<path d="M99.2584 22.0309C98.4504 22.0309 97.7161 21.8208 97.0554 21.4005C96.3947 20.9801 95.8672 20.3497 95.4727 19.509C95.0782 18.6684 94.8809 17.6248 94.8809 16.3782C94.8809 15.0838 95.0853 14.0187 95.494 13.1829C95.9028 12.347 96.4375 11.7285 97.0982 11.3273C97.7636 10.9261 98.4789 10.7255 99.2442 10.7255C99.8193 10.7255 100.311 10.8258 100.72 11.0264C101.129 11.2222 101.466 11.4754 101.732 11.7858C101.999 12.0963 102.201 12.4187 102.338 12.753H102.41V7.2006H105.896V21.8733H102.445V20.0894H102.338C102.191 20.4285 101.982 20.7461 101.711 21.0422C101.44 21.3384 101.1 21.5772 100.691 21.7587C100.287 21.9402 99.8098 22.0309 99.2584 22.0309ZM100.47 19.3013C100.893 19.3013 101.255 19.1819 101.554 18.9431C101.854 18.6995 102.084 18.358 102.246 17.9186C102.407 17.4791 102.488 16.9633 102.488 16.371C102.488 15.7692 102.407 15.251 102.246 14.8164C102.089 14.3817 101.858 14.0474 101.554 13.8133C101.255 13.5793 100.893 13.4623 100.47 13.4623C100.038 13.4623 99.6719 13.5817 99.3725 13.8205C99.0731 14.0593 98.8449 14.3961 98.6881 14.8307C98.536 15.2653 98.4599 15.7788 98.4599 16.371C98.4599 16.9633 98.5384 17.4791 98.6952 17.9186C98.8521 18.358 99.0778 18.6995 99.3725 18.9431C99.6719 19.1819 100.038 19.3013 100.47 19.3013Z" fill="white"/>
<path d="M111.188 22.0596C110.489 22.0596 109.869 21.9426 109.327 21.7085C108.79 21.4697 108.365 21.1115 108.051 20.6339C107.742 20.1515 107.587 19.5473 107.587 18.8213C107.587 18.2099 107.694 17.6941 107.908 17.2738C108.122 16.8534 108.417 16.5119 108.792 16.2492C109.168 15.9866 109.6 15.7883 110.09 15.6546C110.58 15.5161 111.102 15.423 111.658 15.3752C112.281 15.3179 112.783 15.2582 113.163 15.1961C113.543 15.1292 113.819 15.0361 113.99 14.9167C114.166 14.7925 114.254 14.6181 114.254 14.3937V14.3578C114.254 13.9901 114.128 13.7059 113.876 13.5053C113.624 13.3047 113.284 13.2044 112.856 13.2044C112.395 13.2044 112.024 13.3047 111.744 13.5053C111.464 13.7059 111.285 13.9829 111.209 14.3363L107.994 14.2217C108.089 13.553 108.334 12.956 108.728 12.4306C109.127 11.9005 109.674 11.4849 110.368 11.184C111.067 10.8783 111.906 10.7255 112.885 10.7255C113.583 10.7255 114.227 10.8091 114.817 10.9762C115.406 11.1386 115.92 11.3775 116.357 11.6927C116.794 12.0031 117.132 12.3852 117.369 12.839C117.612 13.2927 117.733 13.811 117.733 14.3937V21.8733H114.453V20.3401H114.368C114.173 20.7127 113.923 21.0279 113.619 21.2858C113.32 21.5437 112.966 21.7372 112.557 21.8661C112.153 21.9951 111.696 22.0596 111.188 22.0596ZM112.264 19.767C112.64 19.767 112.977 19.6905 113.277 19.5377C113.581 19.3849 113.823 19.1747 114.004 18.9072C114.185 18.635 114.275 18.3198 114.275 17.9615V16.9155C114.175 16.9681 114.054 17.0158 113.911 17.0588C113.774 17.1018 113.621 17.1424 113.455 17.1806C113.289 17.2188 113.118 17.2523 112.942 17.2809C112.766 17.3096 112.597 17.3358 112.436 17.3597C112.108 17.4123 111.827 17.4935 111.594 17.6033C111.366 17.7132 111.19 17.8565 111.067 18.0332C110.948 18.2051 110.888 18.4105 110.888 18.6493C110.888 19.0123 111.017 19.2893 111.273 19.4804C111.535 19.6714 111.865 19.767 112.264 19.767Z" fill="white"/>
<path d="M129.425 14.2289L126.224 14.3149C126.191 14.0856 126.1 13.8826 125.953 13.7059C125.806 13.5244 125.613 13.3835 125.376 13.2832C125.143 13.1781 124.872 13.1256 124.563 13.1256C124.159 13.1256 123.814 13.2068 123.529 13.3692C123.249 13.5315 123.111 13.7513 123.116 14.0283C123.111 14.2432 123.196 14.4295 123.372 14.5871C123.553 14.7447 123.874 14.8713 124.335 14.9668L126.445 15.368C127.538 15.5782 128.351 15.9268 128.883 16.414C129.42 16.9012 129.691 17.546 129.696 18.3484C129.691 19.1031 129.468 19.7598 129.026 20.3186C128.589 20.8775 127.99 21.3121 127.229 21.6225C126.469 21.9282 125.599 22.0811 124.62 22.0811C123.056 22.0811 121.823 21.7587 120.92 21.1139C120.021 20.4643 119.508 19.595 119.38 18.506L122.823 18.4201C122.899 18.8213 123.097 19.1269 123.415 19.3371C123.733 19.5473 124.14 19.6523 124.634 19.6523C125.081 19.6523 125.445 19.5688 125.725 19.4016C126.005 19.2344 126.148 19.0123 126.153 18.7353C126.148 18.4869 126.039 18.2887 125.825 18.1406C125.611 17.9878 125.276 17.8684 124.82 17.7824L122.909 17.417C121.811 17.2164 120.993 16.8463 120.456 16.3066C119.919 15.7621 119.653 15.0695 119.658 14.2289C119.653 13.4933 119.848 12.8653 120.242 12.3446C120.637 11.8193 121.198 11.418 121.925 11.141C122.652 10.864 123.51 10.7255 124.499 10.7255C125.982 10.7255 127.151 11.0383 128.006 11.664C128.862 12.2849 129.335 13.1399 129.425 14.2289Z" fill="white"/>
<path d="M134.899 15.5973V21.8733H131.413V7.2006H134.785V12.8891H134.906C135.153 12.2109 135.557 11.6807 136.118 11.2986C136.684 10.9165 137.375 10.7255 138.193 10.7255C138.963 10.7255 139.633 10.8974 140.203 11.2413C140.774 11.5804 141.216 12.0605 141.529 12.6814C141.848 13.3023 142.005 14.0283 142 14.8594V21.8733H138.514V15.5471C138.518 14.9358 138.366 14.4581 138.057 14.1143C137.748 13.7704 137.313 13.5984 136.753 13.5984C136.387 13.5984 136.063 13.6796 135.783 13.842C135.507 13.9996 135.291 14.2265 135.134 14.5226C134.982 14.8188 134.904 15.177 134.899 15.5973Z" fill="white"/>
<rect x="0.25" y="0.25" width="27.5" height="27.5" rx="3.75" fill="#001D13" stroke="#76FF9C" stroke-width="0.5"/>
<path d="M23.6 21V21.9333H18V21H23.6Z" fill="#76FF9C"/>
<path d="M14.2813 11.5597C14.2339 11.0388 14.0232 10.634 13.6491 10.3452C13.2798 10.0516 12.7519 9.90483 12.0653 9.90483C11.6108 9.90483 11.232 9.96402 10.929 10.0824C10.6259 10.2008 10.3987 10.3641 10.2472 10.5724C10.0956 10.776 10.0175 11.0104 10.0128 11.2756C10.0033 11.4934 10.0459 11.6851 10.1406 11.8509C10.2401 12.0166 10.3821 12.1634 10.5668 12.2912C10.7562 12.4143 10.9834 12.5232 11.2486 12.6179C11.5137 12.7126 11.812 12.7955 12.1435 12.8665L13.3935 13.1506C14.1132 13.3068 14.7476 13.5152 15.2969 13.7756C15.8509 14.036 16.3149 14.3461 16.6889 14.706C17.0677 15.0658 17.3542 15.4801 17.5483 15.9489C17.7424 16.4176 17.8419 16.9432 17.8466 17.5256C17.8419 18.4441 17.6098 19.2325 17.1506 19.8906C16.6913 20.5488 16.0308 21.053 15.169 21.4034C14.312 21.7538 13.2775 21.929 12.0653 21.929C10.8485 21.929 9.78788 21.7467 8.88352 21.3821C7.97917 21.0175 7.27604 20.4635 6.77415 19.7202C6.27225 18.9768 6.0142 18.0369 6 16.9006H9.36648C9.39489 17.3693 9.52036 17.7599 9.7429 18.0724C9.96544 18.3849 10.2708 18.6217 10.6591 18.7827C11.0521 18.9437 11.5066 19.0241 12.0227 19.0241C12.4962 19.0241 12.8987 18.9602 13.2301 18.8324C13.5663 18.7045 13.8243 18.527 14.0043 18.2997C14.1842 18.0724 14.2765 17.812 14.2813 17.5185C14.2765 17.2438 14.1913 17.0095 14.0256 16.8153C13.8598 16.6165 13.6042 16.446 13.2585 16.304C12.9176 16.1572 12.482 16.0223 11.9517 15.8991L10.4318 15.544C9.17235 15.2552 8.1804 14.7888 7.45597 14.1449C6.73153 13.4962 6.37169 12.6203 6.37642 11.517C6.37169 10.6174 6.61316 9.82907 7.10085 9.15199C7.58854 8.47491 8.26326 7.94697 9.125 7.56818C9.98674 7.18939 10.9692 7 12.0724 7C13.1993 7 14.1771 7.19176 15.0057 7.57528C15.839 7.95407 16.4853 8.48674 16.9446 9.1733C17.4039 9.85985 17.6383 10.6553 17.6477 11.5597H14.2813Z" fill="#76FF9C"/>
</svg>
